<svg xmlns="http://www.w3.org/2000/svg" xmlns:xlink="http://www.w3.org/1999/xlink" width="500" zoomAndPan="magnify" viewBox="0 0 375 374.999991" height="500" preserveAspectRatio="xMidYMid meet" version="1.0"><defs><g/><clipPath id="25f4b93085"><path d="M 95.109375 60 L 279.609375 60 L 279.609375 209.992188 L 95.109375 209.992188 Z M 95.109375 60 " clip-rule="nonzero"/></clipPath></defs><g clip-path="url(#25f4b93085)"><path fill="#73628a" d="M 146.808594 74.664062 L 186.539062 74.664062 C 195 74.664062 202.28125 72.703125 209.636719 68.492188 L 223.199219 60.65625 C 224.34375 59.992188 225.636719 59.992188 226.746094 60.65625 C 227.890625 61.320312 228.519531 62.429688 228.519531 63.722656 L 228.519531 74.664062 L 256.125 74.664062 C 262.628906 74.664062 267.953125 79.984375 267.953125 86.488281 L 267.953125 122.371094 L 276.636719 122.371094 C 278.410156 122.371094 279.886719 123.851562 279.886719 125.625 L 279.886719 144.027344 C 279.886719 145.800781 278.410156 147.28125 276.636719 147.28125 L 267.953125 147.28125 L 267.953125 155.226562 C 267.953125 166.164062 263.480469 176.105469 256.273438 183.3125 C 249.066406 190.519531 239.125 194.992188 228.1875 194.992188 L 188.460938 194.992188 C 179.996094 194.992188 172.714844 196.949219 165.363281 201.164062 L 151.800781 208.996094 C 150.652344 209.664062 149.359375 209.664062 148.25 208.996094 C 147.105469 208.332031 146.476562 207.222656 146.476562 205.929688 L 146.476562 194.992188 L 118.871094 194.992188 C 112.367188 194.992188 107.046875 189.667969 107.046875 183.164062 L 107.046875 147.28125 L 98.359375 147.28125 C 96.585938 147.28125 95.109375 145.800781 95.109375 144.027344 L 95.109375 125.625 C 95.109375 123.851562 96.585938 122.371094 98.359375 122.371094 L 107.046875 122.371094 L 107.046875 114.425781 C 107.046875 103.488281 111.515625 93.546875 118.722656 86.339844 C 125.929688 79.132812 135.871094 74.664062 146.808594 74.664062 Z M 174.5625 134.828125 C 174.5625 128.507812 169.425781 123.371094 163.109375 123.371094 C 156.789062 123.371094 151.652344 128.507812 151.652344 134.828125 C 151.652344 141.144531 156.789062 146.28125 163.109375 146.28125 C 169.425781 146.28125 174.5625 141.144531 174.5625 134.828125 Z M 223.347656 134.828125 C 223.347656 128.507812 218.207031 123.371094 211.890625 123.371094 C 205.570312 123.371094 200.433594 128.507812 200.433594 134.828125 C 200.433594 141.144531 205.570312 146.28125 211.890625 146.28125 C 218.207031 146.28125 223.347656 141.144531 223.347656 134.828125 Z M 253.167969 134.828125 L 253.167969 89.480469 C 249.695312 89.480469 246.183594 89.480469 242.710938 89.480469 C 234.875 89.480469 228.519531 83.089844 228.519531 75.289062 L 228.519531 74.699219 L 218.136719 80.6875 C 207.675781 86.710938 197.367188 89.480469 185.28125 89.480469 L 146.808594 89.480469 C 139.9375 89.480469 133.726562 92.289062 129.183594 96.835938 C 124.636719 101.382812 121.828125 107.589844 121.828125 114.464844 L 121.828125 180.207031 C 125.300781 180.207031 128.8125 180.207031 132.285156 180.207031 C 140.121094 180.207031 146.476562 186.601562 146.476562 194.398438 L 146.476562 194.992188 L 156.863281 189.003906 C 167.320312 182.980469 177.632812 180.207031 189.714844 180.207031 L 228.1875 180.207031 C 235.0625 180.207031 241.269531 177.398438 245.816406 172.855469 C 250.359375 168.308594 253.167969 162.101562 253.167969 155.226562 Z M 253.167969 134.828125 " fill-opacity="1" fill-rule="evenodd"/></g><g fill="#73628a" fill-opacity="1"><g transform="translate(7.553903, 277.184095)"><g><path d="M 3.421875 0 L 3.421875 -36.03125 L 12.375 -36.03125 L 21.65625 -14.125 L 30.953125 -36.03125 L 39.84375 -36.03125 L 39.84375 0 L 31.34375 0 L 31.34375 -19.796875 L 23.8125 -1.5625 L 19.5 -1.5625 L 11.921875 -19.796875 L 11.921875 0 Z M 3.421875 0 "/></g></g></g><g fill="#73628a" fill-opacity="1"><g transform="translate(55.714827, 277.184095)"><g><path d="M 7.875 0 L 2.4375 -5.421875 L 2.4375 -30.609375 L 7.875 -36.03125 L 28.984375 -36.03125 L 34.421875 -30.609375 L 34.421875 -5.421875 L 28.984375 0 Z M 13.34375 -6.9375 L 23.609375 -6.9375 L 25.328125 -8.65625 L 25.328125 -27.375 L 23.515625 -29.09375 L 13.34375 -29.09375 L 11.59375 -27.375 L 11.59375 -8.65625 Z M 13.34375 -6.9375 "/></g></g></g><g fill="#73628a" fill-opacity="1"><g transform="translate(97.470763, 277.184095)"><g><path d="M 3.421875 0 L 3.421875 -36.03125 L 13.390625 -36.03125 L 25.515625 -14.421875 L 25.515625 -36.03125 L 34.03125 -36.03125 L 34.03125 0 L 25.515625 0 L 13.6875 -21.125 L 11.921875 -21.125 L 11.921875 0 Z M 3.421875 0 "/></g></g></g><g fill="#73628a" fill-opacity="1"><g transform="translate(139.813413, 277.184095)"><g><path d="M 10.3125 0 L 10.3125 -28.59375 L 0.25 -28.59375 L 0.25 -36.03125 L 29.53125 -36.03125 L 29.53125 -28.59375 L 19.453125 -28.59375 L 19.453125 0 Z M 10.3125 0 "/></g></g></g><g fill="#73628a" fill-opacity="1"><g transform="translate(174.479842, 277.184095)"><g><path d="M 1.953125 0 L 1.953125 -6.890625 L 5.96875 -6.890625 L 5.859375 -29.140625 L 1.953125 -29.140625 L 1.953125 -36.03125 L 18.578125 -36.03125 L 18.578125 -29.140625 L 14.625 -29.140625 L 14.515625 -6.890625 L 18.578125 -6.890625 L 18.578125 0 Z M 1.953125 0 "/></g></g></g><g fill="#73628a" fill-opacity="1"><g transform="translate(199.905487, 277.184095)"><g/></g></g><g fill="#73628a" fill-opacity="1"><g transform="translate(216.823724, 277.184095)"><g><path d="M 7.875 0 L 2.4375 -5.421875 L 2.4375 -30.609375 L 7.875 -36.03125 L 26.40625 -36.03125 L 31.875 -30.609375 L 31.875 -23.328125 L 22.984375 -23.328125 L 22.984375 -27.375 L 21.21875 -29.09375 L 13.34375 -29.09375 L 11.59375 -27.375 L 11.59375 -8.65625 L 13.34375 -6.9375 L 21.515625 -6.9375 L 23.328125 -8.65625 L 23.328125 -12.765625 L 32.171875 -12.765625 L 32.171875 -5.421875 L 26.75 0 Z M 7.875 0 "/></g></g></g><g fill="#73628a" fill-opacity="1"><g transform="translate(254.472634, 277.184095)"><g><path d="M 3.421875 0 L 3.421875 -36.03125 L 12.5625 -36.03125 L 12.5625 -22.640625 L 24.84375 -22.640625 L 24.84375 -36.03125 L 33.984375 -36.03125 L 33.984375 0 L 24.84375 0 L 24.84375 -15.5 L 12.5625 -15.5 L 12.5625 0 Z M 3.421875 0 "/></g></g></g><g fill="#73628a" fill-opacity="1"><g transform="translate(296.76639, 277.184095)"><g><path d="M 0 0 L 10.5625 -36.03125 L 25.421875 -36.03125 L 35.984375 0 L 26.296875 0 L 24.5 -7.1875 L 11.484375 -7.1875 L 9.6875 0 Z M 13.296875 -14.234375 L 22.6875 -14.234375 L 18.875 -29.140625 L 17.109375 -29.140625 Z M 13.296875 -14.234375 "/></g></g></g><g fill="#73628a" fill-opacity="1"><g transform="translate(337.642246, 277.184095)"><g><path d="M 10.3125 0 L 10.3125 -28.59375 L 0.25 -28.59375 L 0.25 -36.03125 L 29.53125 -36.03125 L 29.53125 -28.59375 L 19.453125 -28.59375 L 19.453125 0 Z M 10.3125 0 "/></g></g></g><g fill="#73628a" fill-opacity="1"><g transform="translate(100.020976, 307.979043)"><g><path d="M 11.140625 -0.15625 C 10.671875 -0.0507812 10.097656 0.0234375 9.421875 0.078125 C 8.742188 0.140625 8.113281 0.171875 7.53125 0.171875 C 5.75 0.171875 4.4375 -0.03125 3.59375 -0.4375 C 2.75 -0.851562 2.179688 -1.578125 1.890625 -2.609375 C 1.609375 -3.640625 1.46875 -5.222656 1.46875 -7.359375 C 1.46875 -9.492188 1.609375 -11.070312 1.890625 -12.09375 C 2.179688 -13.125 2.75 -13.847656 3.59375 -14.265625 C 4.4375 -14.679688 5.75 -14.890625 7.53125 -14.890625 C 8.125 -14.890625 8.753906 -14.851562 9.421875 -14.78125 C 10.085938 -14.707031 10.632812 -14.625 11.0625 -14.53125 L 11.0625 -12.484375 C 9.914062 -12.628906 8.9375 -12.703125 8.125 -12.703125 C 6.726562 -12.703125 5.757812 -12.59375 5.21875 -12.375 C 4.675781 -12.164062 4.316406 -11.71875 4.140625 -11.03125 C 3.972656 -10.351562 3.890625 -9.128906 3.890625 -7.359375 C 3.890625 -5.585938 3.972656 -4.359375 4.140625 -3.671875 C 4.316406 -2.992188 4.675781 -2.546875 5.21875 -2.328125 C 5.757812 -2.117188 6.726562 -2.015625 8.125 -2.015625 C 9.238281 -2.015625 10.242188 -2.082031 11.140625 -2.21875 Z M 11.140625 -0.15625 "/></g></g></g><g fill="#73628a" fill-opacity="1"><g transform="translate(116.574641, 307.979043)"><g><path d="M 7.609375 0.171875 C 5.640625 0.171875 4.238281 -0.03125 3.40625 -0.4375 C 2.570312 -0.84375 2.039062 -1.53125 1.8125 -2.5 C 1.582031 -3.46875 1.46875 -5.085938 1.46875 -7.359375 C 1.46875 -9.628906 1.582031 -11.25 1.8125 -12.21875 C 2.039062 -13.1875 2.570312 -13.875 3.40625 -14.28125 C 4.238281 -14.6875 5.640625 -14.890625 7.609375 -14.890625 C 9.578125 -14.890625 10.984375 -14.6875 11.828125 -14.28125 C 12.671875 -13.875 13.207031 -13.179688 13.4375 -12.203125 C 13.664062 -11.222656 13.78125 -9.609375 13.78125 -7.359375 C 13.78125 -5.109375 13.664062 -3.492188 13.4375 -2.515625 C 13.207031 -1.535156 12.671875 -0.84375 11.828125 -0.4375 C 10.984375 -0.03125 9.578125 0.171875 7.609375 0.171875 Z M 7.609375 -2.015625 C 8.921875 -2.015625 9.804688 -2.097656 10.265625 -2.265625 C 10.722656 -2.441406 11.019531 -2.863281 11.15625 -3.53125 C 11.289062 -4.195312 11.359375 -5.472656 11.359375 -7.359375 C 11.359375 -9.242188 11.289062 -10.519531 11.15625 -11.1875 C 11.019531 -11.851562 10.722656 -12.269531 10.265625 -12.4375 C 9.804688 -12.613281 8.921875 -12.703125 7.609375 -12.703125 C 6.296875 -12.703125 5.414062 -12.613281 4.96875 -12.4375 C 4.519531 -12.269531 4.226562 -11.851562 4.09375 -11.1875 C 3.957031 -10.519531 3.890625 -9.242188 3.890625 -7.359375 C 3.890625 -5.472656 3.957031 -4.195312 4.09375 -3.53125 C 4.226562 -2.863281 4.519531 -2.441406 4.96875 -2.265625 C 5.414062 -2.097656 6.296875 -2.015625 7.609375 -2.015625 Z M 7.609375 -2.015625 "/></g></g></g><g fill="#73628a" fill-opacity="1"><g transform="translate(136.100684, 307.979043)"><g><path d="M 15 0 L 15 -10.765625 L 14.90625 -10.765625 L 10.453125 0 L 8.75 0 L 4.328125 -10.765625 L 4.234375 -10.765625 L 4.234375 0 L 1.96875 0 L 1.96875 -14.71875 L 5.265625 -14.71875 L 9.609375 -4.296875 L 9.71875 -4.296875 L 14.046875 -14.71875 L 17.328125 -14.71875 L 17.328125 0 Z M 15 0 "/></g></g></g><g fill="#73628a" fill-opacity="1"><g transform="translate(159.668318, 307.979043)"><g><path d="M 15 0 L 15 -10.765625 L 14.90625 -10.765625 L 10.453125 0 L 8.75 0 L 4.328125 -10.765625 L 4.234375 -10.765625 L 4.234375 0 L 1.96875 0 L 1.96875 -14.71875 L 5.265625 -14.71875 L 9.609375 -4.296875 L 9.71875 -4.296875 L 14.046875 -14.71875 L 17.328125 -14.71875 L 17.328125 0 Z M 15 0 "/></g></g></g><g fill="#73628a" fill-opacity="1"><g transform="translate(183.235947, 307.979043)"><g><path d="M 13.265625 -14.71875 L 13.265625 -6.53125 C 13.265625 -4.570312 13.132812 -3.140625 12.875 -2.234375 C 12.613281 -1.335938 12.09375 -0.710938 11.3125 -0.359375 C 10.53125 -0.00390625 9.273438 0.171875 7.546875 0.171875 C 5.828125 0.171875 4.570312 -0.00390625 3.78125 -0.359375 C 2.988281 -0.710938 2.457031 -1.34375 2.1875 -2.25 C 1.925781 -3.15625 1.796875 -4.582031 1.796875 -6.53125 L 1.796875 -14.71875 L 4.21875 -14.71875 L 4.21875 -5.78125 C 4.21875 -4.582031 4.273438 -3.742188 4.390625 -3.265625 C 4.515625 -2.785156 4.796875 -2.457031 5.234375 -2.28125 C 5.679688 -2.101562 6.453125 -2.015625 7.546875 -2.015625 C 8.628906 -2.015625 9.390625 -2.101562 9.828125 -2.28125 C 10.273438 -2.457031 10.554688 -2.785156 10.671875 -3.265625 C 10.785156 -3.742188 10.84375 -4.582031 10.84375 -5.78125 L 10.84375 -14.71875 Z M 13.265625 -14.71875 "/></g></g></g><g fill="#73628a" fill-opacity="1"><g transform="translate(202.590922, 307.979043)"><g><path d="M 11.3125 0 L 4.359375 -10.3125 L 4.28125 -10.3125 L 4.28125 0 L 1.96875 0 L 1.96875 -14.71875 L 4.46875 -14.71875 L 11.234375 -4.765625 L 11.3125 -4.765625 L 11.3125 -14.71875 L 13.625 -14.71875 L 13.625 0 Z M 11.3125 0 "/></g></g></g><g fill="#73628a" fill-opacity="1"><g transform="translate(222.4591, 307.979043)"><g><path d="M 1.96875 0 L 1.96875 -14.71875 L 4.390625 -14.71875 L 4.390625 0 Z M 1.96875 0 "/></g></g></g><g fill="#73628a" fill-opacity="1"><g transform="translate(233.067983, 307.979043)"><g><path d="M 5 0 L 5 -12.46875 L 0.53125 -12.46875 L 0.53125 -14.71875 L 11.890625 -14.71875 L 11.890625 -12.46875 L 7.421875 -12.46875 L 7.421875 0 Z M 5 0 "/></g></g></g><g fill="#73628a" fill-opacity="1"><g transform="translate(249.771331, 307.979043)"><g><path d="M 5.375 0 L 5.375 -5.34375 L 0.171875 -14.71875 L 2.71875 -14.71875 L 6.5625 -7.890625 L 6.71875 -7.890625 L 10.5 -14.71875 L 13 -14.71875 L 7.765625 -5.34375 L 7.765625 0 Z M 5.375 0 "/></g></g></g></svg>