<svg xmlns="http://www.w3.org/2000/svg" xmlns:xlink="http://www.w3.org/1999/xlink" width="500" zoomAndPan="magnify" viewBox="0 0 375 225" height="300" preserveAspectRatio="xMidYMid meet" version="1.0"><defs><g/><clipPath id="8f41e58320"><path d="M 110.039062 15.375 L 261.539062 15.375 L 261.539062 137.625 L 110.039062 137.625 Z M 110.039062 15.375 " clip-rule="nonzero"/></clipPath></defs><g clip-path="url(#8f41e58320)"><path fill="#73628a" d="M 152.328125 27.375 L 184.820312 27.375 C 191.742188 27.375 197.695312 25.773438 203.710938 22.328125 L 214.804688 15.917969 C 215.742188 15.375 216.796875 15.375 217.707031 15.917969 C 218.640625 16.464844 219.15625 17.371094 219.15625 18.429688 L 219.15625 27.375 L 241.734375 27.375 C 247.054688 27.375 251.40625 31.726562 251.40625 37.046875 L 251.40625 66.398438 L 258.511719 66.398438 C 259.960938 66.398438 261.171875 67.605469 261.171875 69.054688 L 261.171875 84.109375 C 261.171875 85.558594 259.960938 86.769531 258.511719 86.769531 L 251.40625 86.769531 L 251.40625 93.265625 C 251.40625 102.214844 247.75 110.34375 241.855469 116.238281 C 235.960938 122.132812 227.832031 125.789062 218.882812 125.789062 L 186.390625 125.789062 C 179.46875 125.789062 173.515625 127.390625 167.5 130.835938 L 156.40625 137.246094 C 155.472656 137.789062 154.414062 137.789062 153.507812 137.246094 C 152.570312 136.703125 152.054688 135.792969 152.054688 134.738281 L 152.054688 125.789062 L 129.476562 125.789062 C 124.15625 125.789062 119.804688 121.4375 119.804688 116.117188 L 119.804688 86.769531 L 112.703125 86.769531 C 111.25 86.769531 110.042969 85.558594 110.042969 84.109375 L 110.042969 69.054688 C 110.042969 67.605469 111.25 66.398438 112.703125 66.398438 L 119.804688 66.398438 L 119.804688 59.898438 C 119.804688 50.953125 123.460938 42.820312 129.355469 36.925781 C 135.25 31.03125 143.378906 27.375 152.328125 27.375 Z M 175.027344 76.582031 C 175.027344 71.414062 170.824219 67.210938 165.65625 67.210938 C 160.488281 67.210938 156.285156 71.414062 156.285156 76.582031 C 156.285156 81.75 160.488281 85.953125 165.65625 85.953125 C 170.824219 85.953125 175.027344 81.75 175.027344 76.582031 Z M 214.925781 76.582031 C 214.925781 71.414062 210.722656 67.210938 205.554688 67.210938 C 200.386719 67.210938 196.183594 71.414062 196.183594 76.582031 C 196.183594 81.75 200.386719 85.953125 205.554688 85.953125 C 210.722656 85.953125 214.925781 81.75 214.925781 76.582031 Z M 239.316406 76.582031 L 239.316406 39.496094 C 236.476562 39.496094 233.605469 39.496094 230.761719 39.496094 C 224.355469 39.496094 219.15625 34.265625 219.15625 27.890625 L 219.15625 27.40625 L 210.664062 32.300781 C 202.109375 37.230469 193.675781 39.496094 183.792969 39.496094 L 152.328125 39.496094 C 146.707031 39.496094 141.628906 41.792969 137.910156 45.511719 C 134.191406 49.226562 131.894531 54.304688 131.894531 59.929688 L 131.894531 113.699219 C 134.734375 113.699219 137.609375 113.699219 140.449219 113.699219 C 146.855469 113.699219 152.054688 118.929688 152.054688 125.304688 L 152.054688 125.789062 L 160.546875 120.894531 C 169.101562 115.964844 177.535156 113.699219 187.417969 113.699219 L 218.882812 113.699219 C 224.507812 113.699219 229.585938 111.402344 233.300781 107.683594 C 237.019531 103.96875 239.316406 98.890625 239.316406 93.265625 Z M 239.316406 76.582031 " fill-opacity="1" fill-rule="evenodd"/></g><g fill="#73628a" fill-opacity="1"><g transform="translate(40.320313, 178.686828)"><g><path d="M 2.796875 0 L 2.796875 -29.484375 L 10.125 -29.484375 L 17.71875 -11.5625 L 25.3125 -29.484375 L 32.59375 -29.484375 L 32.59375 0 L 25.640625 0 L 25.640625 -16.203125 L 19.484375 -1.28125 L 15.953125 -1.28125 L 9.765625 -16.203125 L 9.765625 0 Z M 2.796875 0 "/></g></g></g><g fill="#73628a" fill-opacity="1"><g transform="translate(79.711611, 178.686828)"><g><path d="M 6.4375 0 L 2 -4.4375 L 2 -25.046875 L 6.4375 -29.484375 L 23.71875 -29.484375 L 28.15625 -25.046875 L 28.15625 -4.4375 L 23.71875 0 Z M 10.921875 -5.6875 L 19.3125 -5.6875 L 20.71875 -7.078125 L 20.71875 -22.40625 L 19.234375 -23.796875 L 10.921875 -23.796875 L 9.484375 -22.40625 L 9.484375 -7.078125 Z M 10.921875 -5.6875 "/></g></g></g><g fill="#73628a" fill-opacity="1"><g transform="translate(113.864206, 178.686828)"><g><path d="M 2.796875 0 L 2.796875 -29.484375 L 10.953125 -29.484375 L 20.875 -11.796875 L 20.875 -29.484375 L 27.84375 -29.484375 L 27.84375 0 L 20.875 0 L 11.203125 -17.28125 L 9.765625 -17.28125 L 9.765625 0 Z M 2.796875 0 "/></g></g></g><g fill="#73628a" fill-opacity="1"><g transform="translate(148.49668, 178.686828)"><g><path d="M 8.4375 0 L 8.4375 -23.40625 L 0.203125 -23.40625 L 0.203125 -29.484375 L 24.15625 -29.484375 L 24.15625 -23.40625 L 15.921875 -23.40625 L 15.921875 0 Z M 8.4375 0 "/></g></g></g><g fill="#73628a" fill-opacity="1"><g transform="translate(176.850697, 178.686828)"><g><path d="M 1.59375 0 L 1.59375 -5.640625 L 4.875 -5.640625 L 4.796875 -23.84375 L 1.59375 -23.84375 L 1.59375 -29.484375 L 15.203125 -29.484375 L 15.203125 -23.84375 L 11.953125 -23.84375 L 11.875 -5.640625 L 15.203125 -5.640625 L 15.203125 0 Z M 1.59375 0 "/></g></g></g><g fill="#73628a" fill-opacity="1"><g transform="translate(197.646584, 178.686828)"><g/></g></g><g fill="#73628a" fill-opacity="1"><g transform="translate(211.484179, 178.686828)"><g><path d="M 6.4375 0 L 2 -4.4375 L 2 -25.046875 L 6.4375 -29.484375 L 21.59375 -29.484375 L 26.078125 -25.046875 L 26.078125 -19.078125 L 18.796875 -19.078125 L 18.796875 -22.40625 L 17.359375 -23.796875 L 10.921875 -23.796875 L 9.484375 -22.40625 L 9.484375 -7.078125 L 10.921875 -5.6875 L 17.59375 -5.6875 L 19.078125 -7.078125 L 19.078125 -10.4375 L 26.3125 -10.4375 L 26.3125 -4.4375 L 21.875 0 Z M 6.4375 0 "/></g></g></g><g fill="#73628a" fill-opacity="1"><g transform="translate(242.277596, 178.686828)"><g><path d="M 2.796875 0 L 2.796875 -29.484375 L 10.28125 -29.484375 L 10.28125 -18.515625 L 20.3125 -18.515625 L 20.3125 -29.484375 L 27.796875 -29.484375 L 27.796875 0 L 20.3125 0 L 20.3125 -12.6875 L 10.28125 -12.6875 L 10.28125 0 Z M 2.796875 0 "/></g></g></g><g fill="#73628a" fill-opacity="1"><g transform="translate(276.87008, 178.686828)"><g><path d="M 0 0 L 8.640625 -29.484375 L 20.796875 -29.484375 L 29.4375 0 L 21.515625 0 L 20.046875 -5.875 L 9.40625 -5.875 L 7.921875 0 Z M 10.875 -11.640625 L 18.5625 -11.640625 L 15.4375 -23.84375 L 14 -23.84375 Z M 10.875 -11.640625 "/></g></g></g><g fill="#73628a" fill-opacity="1"><g transform="translate(310.302848, 178.686828)"><g><path d="M 8.4375 0 L 8.4375 -23.40625 L 0.203125 -23.40625 L 0.203125 -29.484375 L 24.15625 -29.484375 L 24.15625 -23.40625 L 15.921875 -23.40625 L 15.921875 0 Z M 8.4375 0 "/></g></g></g><g fill="#73628a" fill-opacity="1"><g transform="translate(115.950047, 203.874318)"><g><path d="M 9.125 -0.125 C 8.738281 -0.0390625 8.265625 0.0195312 7.703125 0.0625 C 7.148438 0.113281 6.632812 0.140625 6.15625 0.140625 C 4.695312 0.140625 3.625 -0.0234375 2.9375 -0.359375 C 2.25 -0.703125 1.785156 -1.289062 1.546875 -2.125 C 1.316406 -2.96875 1.203125 -4.265625 1.203125 -6.015625 C 1.203125 -7.765625 1.316406 -9.0625 1.546875 -9.90625 C 1.785156 -10.75 2.25 -11.335938 2.9375 -11.671875 C 3.625 -12.015625 4.695312 -12.1875 6.15625 -12.1875 C 6.644531 -12.1875 7.160156 -12.15625 7.703125 -12.09375 C 8.242188 -12.03125 8.691406 -11.957031 9.046875 -11.875 L 9.046875 -10.21875 C 8.109375 -10.332031 7.3125 -10.390625 6.65625 -10.390625 C 5.507812 -10.390625 4.710938 -10.300781 4.265625 -10.125 C 3.828125 -9.957031 3.535156 -9.59375 3.390625 -9.03125 C 3.253906 -8.46875 3.1875 -7.460938 3.1875 -6.015625 C 3.1875 -4.566406 3.253906 -3.5625 3.390625 -3 C 3.535156 -2.445312 3.828125 -2.082031 4.265625 -1.90625 C 4.710938 -1.726562 5.507812 -1.640625 6.65625 -1.640625 C 7.5625 -1.640625 8.382812 -1.695312 9.125 -1.8125 Z M 9.125 -0.125 "/></g></g></g><g fill="#73628a" fill-opacity="1"><g transform="translate(129.489454, 203.874318)"><g><path d="M 6.234375 0.140625 C 4.617188 0.140625 3.46875 -0.0234375 2.78125 -0.359375 C 2.101562 -0.691406 1.671875 -1.253906 1.484375 -2.046875 C 1.296875 -2.835938 1.203125 -4.160156 1.203125 -6.015625 C 1.203125 -7.867188 1.296875 -9.191406 1.484375 -9.984375 C 1.671875 -10.785156 2.101562 -11.351562 2.78125 -11.6875 C 3.46875 -12.019531 4.617188 -12.1875 6.234375 -12.1875 C 7.835938 -12.1875 8.984375 -12.019531 9.671875 -11.6875 C 10.359375 -11.351562 10.796875 -10.785156 10.984375 -9.984375 C 11.171875 -9.179688 11.265625 -7.859375 11.265625 -6.015625 C 11.265625 -4.171875 11.171875 -2.847656 10.984375 -2.046875 C 10.796875 -1.253906 10.359375 -0.691406 9.671875 -0.359375 C 8.984375 -0.0234375 7.835938 0.140625 6.234375 0.140625 Z M 6.234375 -1.640625 C 7.304688 -1.640625 8.023438 -1.707031 8.390625 -1.84375 C 8.765625 -1.988281 9.007812 -2.332031 9.125 -2.875 C 9.238281 -3.425781 9.296875 -4.472656 9.296875 -6.015625 C 9.296875 -7.554688 9.238281 -8.597656 9.125 -9.140625 C 9.007812 -9.691406 8.765625 -10.035156 8.390625 -10.171875 C 8.023438 -10.316406 7.304688 -10.390625 6.234375 -10.390625 C 5.160156 -10.390625 4.4375 -10.316406 4.0625 -10.171875 C 3.695312 -10.035156 3.457031 -9.691406 3.34375 -9.140625 C 3.238281 -8.597656 3.1875 -7.554688 3.1875 -6.015625 C 3.1875 -4.472656 3.238281 -3.425781 3.34375 -2.875 C 3.457031 -2.332031 3.695312 -1.988281 4.0625 -1.84375 C 4.4375 -1.707031 5.160156 -1.640625 6.234375 -1.640625 Z M 6.234375 -1.640625 "/></g></g></g><g fill="#73628a" fill-opacity="1"><g transform="translate(145.459998, 203.874318)"><g><path d="M 12.265625 0 L 12.265625 -8.796875 L 12.203125 -8.796875 L 8.5625 0 L 7.15625 0 L 3.53125 -8.796875 L 3.46875 -8.796875 L 3.46875 0 L 1.609375 0 L 1.609375 -12.046875 L 4.3125 -12.046875 L 7.859375 -3.515625 L 7.9375 -3.515625 L 11.5 -12.046875 L 14.171875 -12.046875 L 14.171875 0 Z M 12.265625 0 "/></g></g></g><g fill="#73628a" fill-opacity="1"><g transform="translate(164.7362, 203.874318)"><g><path d="M 12.265625 0 L 12.265625 -8.796875 L 12.203125 -8.796875 L 8.5625 0 L 7.15625 0 L 3.53125 -8.796875 L 3.46875 -8.796875 L 3.46875 0 L 1.609375 0 L 1.609375 -12.046875 L 4.3125 -12.046875 L 7.859375 -3.515625 L 7.9375 -3.515625 L 11.5 -12.046875 L 14.171875 -12.046875 L 14.171875 0 Z M 12.265625 0 "/></g></g></g><g fill="#73628a" fill-opacity="1"><g transform="translate(184.012398, 203.874318)"><g><path d="M 10.84375 -12.046875 L 10.84375 -5.34375 C 10.84375 -3.738281 10.738281 -2.566406 10.53125 -1.828125 C 10.320312 -1.097656 9.894531 -0.585938 9.25 -0.296875 C 8.613281 -0.00390625 7.585938 0.140625 6.171875 0.140625 C 4.765625 0.140625 3.738281 -0.00390625 3.09375 -0.296875 C 2.445312 -0.585938 2.015625 -1.101562 1.796875 -1.84375 C 1.578125 -2.582031 1.46875 -3.75 1.46875 -5.34375 L 1.46875 -12.046875 L 3.453125 -12.046875 L 3.453125 -4.71875 C 3.453125 -3.738281 3.5 -3.050781 3.59375 -2.65625 C 3.695312 -2.269531 3.925781 -2.003906 4.28125 -1.859375 C 4.644531 -1.710938 5.273438 -1.640625 6.171875 -1.640625 C 7.054688 -1.640625 7.679688 -1.710938 8.046875 -1.859375 C 8.410156 -2.003906 8.640625 -2.269531 8.734375 -2.65625 C 8.828125 -3.050781 8.875 -3.738281 8.875 -4.71875 L 8.875 -12.046875 Z M 10.84375 -12.046875 "/></g></g></g><g fill="#73628a" fill-opacity="1"><g transform="translate(199.843025, 203.874318)"><g><path d="M 9.25 0 L 3.5625 -8.4375 L 3.5 -8.4375 L 3.5 0 L 1.609375 0 L 1.609375 -12.046875 L 3.65625 -12.046875 L 9.1875 -3.90625 L 9.25 -3.90625 L 9.25 -12.046875 L 11.140625 -12.046875 L 11.140625 0 Z M 9.25 0 "/></g></g></g><g fill="#73628a" fill-opacity="1"><g transform="translate(216.093405, 203.874318)"><g><path d="M 1.609375 0 L 1.609375 -12.046875 L 3.59375 -12.046875 L 3.59375 0 Z M 1.609375 0 "/></g></g></g><g fill="#73628a" fill-opacity="1"><g transform="translate(224.770515, 203.874318)"><g><path d="M 4.09375 0 L 4.09375 -10.203125 L 0.4375 -10.203125 L 0.4375 -12.046875 L 9.734375 -12.046875 L 9.734375 -10.203125 L 6.078125 -10.203125 L 6.078125 0 Z M 4.09375 0 "/></g></g></g><g fill="#73628a" fill-opacity="1"><g transform="translate(238.43235, 203.874318)"><g><path d="M 4.390625 0 L 4.390625 -4.375 L 0.140625 -12.046875 L 2.21875 -12.046875 L 5.375 -6.453125 L 5.5 -6.453125 L 8.59375 -12.046875 L 10.640625 -12.046875 L 6.359375 -4.375 L 6.359375 0 Z M 4.390625 0 "/></g></g></g></svg>